<svg width="151" height="31" viewBox="0 0 151 31" fill="none" xmlns="http://www.w3.org/2000/svg">
<g id="binance 1" clip-path="url(#clip0_1_1584)">
<g id="Group">
<path id="Vector" d="M9.82603 12.8302L15.6526 7.00606L21.4815 12.835L24.8699 9.44426L15.6526 0.224609L6.4353 9.44189L9.82603 12.8302Z" fill="#828282"/>
<path id="Vector_2" d="M0.650146 15.2251L4.03963 11.8356L7.42912 15.2251L4.03963 18.6146L0.650146 15.2251Z" fill="#828282"/>
<path id="Vector_3" d="M9.82686 17.6191L15.6534 23.4456L21.4823 17.6167L24.8731 21.0027L24.8707 21.0051L15.6534 30.2247L6.43614 21.0098L6.4314 21.0051L9.82686 17.6191Z" fill="#828282"/>
<path id="Vector_4" d="M23.8708 15.2261L27.2603 11.8366L30.6498 15.2261L27.2603 18.6156L23.8708 15.2261Z" fill="#828282"/>
<path id="Vector_5" d="M19.0897 15.2234L15.6516 11.783L13.1091 14.3254L12.8153 14.6169L12.2135 15.2187L12.2087 15.2234L12.2135 15.2306L15.6516 18.6663L19.0897 15.2258L19.0921 15.2234H19.0897Z" fill="#828282"/>
<g id="Group_2">
<path id="Vector_6" d="M35.9373 7.49414H43.3111C45.1403 7.49414 46.5241 7.96804 47.4624 8.91583C47.8159 9.26594 48.0946 9.68422 48.2816 10.1453C48.4685 10.6064 48.5598 11.1006 48.55 11.5981V11.6431C48.5563 12.0506 48.4996 12.4566 48.3818 12.8468C48.2768 13.1827 48.1244 13.5018 47.9292 13.7946C47.7472 14.0707 47.527 14.3196 47.2752 14.5339C47.0292 14.7456 46.7597 14.9285 46.472 15.0788C47.3016 15.3678 48.0477 15.856 48.6448 16.5005C49.1724 17.1008 49.4362 17.9301 49.4362 18.9885V19.0335C49.4512 19.6945 49.3073 20.3494 49.0168 20.9433C48.7352 21.4905 48.3225 21.9594 47.8155 22.3081C47.2422 22.6924 46.6039 22.9694 45.9317 23.1256C45.133 23.315 44.3143 23.4065 43.4935 23.3981H35.9373V7.49414ZM42.5718 13.9249C43.2098 13.9557 43.8446 13.8185 44.4129 13.5268C44.6345 13.3974 44.8154 13.2085 44.9352 12.9815C45.0549 12.7545 45.1088 12.4986 45.0906 12.2426V12.1976C45.1023 11.9617 45.0544 11.7267 44.9513 11.5142C44.8481 11.3018 44.6931 11.1187 44.5006 10.982C44.1072 10.7024 43.5393 10.5626 42.7969 10.5626H39.3469V13.9249H42.5718ZM43.503 20.3344C44.1386 20.37 44.7713 20.2245 45.3275 19.915C45.5442 19.7757 45.7196 19.581 45.8354 19.3509C45.9513 19.1209 46.0034 18.864 45.9862 18.607V18.562C45.9947 18.3177 45.9433 18.0751 45.8363 17.8553C45.7293 17.6356 45.5701 17.4454 45.3725 17.3014C44.965 16.9855 44.3063 16.8275 43.3964 16.8275H39.3469V20.3344H43.503Z" fill="#828282"/>
<path id="Vector_7" d="M53.8298 7.49414H57.3296V23.4028H53.8298V7.49414Z" fill="#828282"/>
<path id="Vector_8" d="M62.6248 7.49414H65.852L73.3111 17.2848V7.49414H76.7658V23.4028H73.7874L66.0842 13.2899V23.4028H62.6248V7.49414Z" fill="#828282"/>
<path id="Vector_9" d="M87.3621 7.38037H90.5846L97.4016 23.4028H93.7478L92.293 19.8344H85.566L84.1112 23.4028H80.5427L87.3621 7.38037ZM91.0443 16.7446L88.926 11.5838L86.8171 16.7446H91.0443Z" fill="#828282"/>
<path id="Vector_10" d="M101.185 7.49414H104.413L111.867 17.2848V7.49414H115.322V23.4028H112.343L104.64 13.2899V23.4028H101.185V7.49414Z" fill="#828282"/>
<path id="Vector_11" d="M127.918 23.6824C126.803 23.6919 125.697 23.4759 124.667 23.0474C123.698 22.647 122.818 22.0567 122.081 21.3112C121.343 20.5657 120.762 19.6801 120.372 18.7065C119.96 17.6881 119.751 16.599 119.758 15.5006V15.4555C119.74 13.2904 120.573 11.2047 122.078 9.64794C122.818 8.88751 123.705 8.28465 124.684 7.87557C125.749 7.43428 126.893 7.2142 128.046 7.2287C128.728 7.22361 129.409 7.28471 130.079 7.41115C130.653 7.51959 131.213 7.68714 131.752 7.91111C132.241 8.11693 132.706 8.37598 133.138 8.68356C133.56 8.98355 133.956 9.318 134.323 9.68348L132.098 12.252C131.53 11.7275 130.892 11.2834 130.203 10.9322C129.525 10.6084 128.782 10.4462 128.032 10.4583C127.408 10.4516 126.789 10.5779 126.217 10.8288C125.645 11.0796 125.133 11.4492 124.715 11.9132C124.3 12.3759 123.976 12.9119 123.758 13.4936C123.529 14.1084 123.414 14.7595 123.419 15.4153V15.4603C123.416 16.1151 123.531 16.7651 123.758 17.3796C123.973 17.9634 124.294 18.5024 124.705 18.9695C125.12 19.4392 125.631 19.8142 126.203 20.0693C126.776 20.3244 127.396 20.4536 128.023 20.448C128.821 20.4732 129.612 20.3015 130.328 19.9481C131.01 19.5767 131.64 19.1178 132.202 18.5833L134.43 20.8343C134.036 21.2611 133.611 21.6572 133.157 22.019C132.711 22.3715 132.227 22.6727 131.714 22.917C131.167 23.1744 130.591 23.3646 129.999 23.4833C129.314 23.6206 128.617 23.6873 127.918 23.6824Z" fill="#828282"/>
<path id="Vector_12" d="M138.56 7.49414H150.533V10.6076H142.003V13.8349H149.514V16.9484H142.015V20.2893H150.652V23.4028H138.567L138.56 7.49414Z" fill="#828282"/>
</g>
</g>
</g>
<defs>
<clipPath id="clip0_1_1584">
<rect width="149.998" height="30" fill="white" transform="translate(0.6521 0.224609)"/>
</clipPath>
</defs>
</svg>
