<svg width="144" height="31" viewBox="0 0 144 31" fill="none" xmlns="http://www.w3.org/2000/svg">
<g id="bitcoin-logo 1" clip-path="url(#clip0_1_1571)">
<path id="Vector" d="M29.7678 18.8526C27.7644 26.8897 19.6255 31.7788 11.5883 29.7754C3.55535 27.7719 -1.33512 19.6326 0.669251 11.5972C2.67175 3.56005 10.8102 -1.33042 18.8446 0.673021C26.8808 2.67646 31.7708 10.8168 29.7674 18.8526H29.7678Z" fill="#828282"/>
<path id="Vector_2" d="M21.8331 13.0876C22.1317 11.0916 20.612 10.0187 18.534 9.30289L19.2081 6.59914L17.5623 6.18898L16.9061 8.82148C16.4677 8.71378 16.0283 8.61033 15.5879 8.51117L16.2489 5.86133L14.6036 5.45117L13.9295 8.15398C13.5714 8.07242 13.2198 7.9918 12.8786 7.90695L12.8804 7.89852L10.6108 7.3318L10.1729 9.08961C10.1729 9.08961 11.394 9.36945 11.3683 9.3868C12.0348 9.5532 12.1553 9.9943 12.1351 10.344L11.3673 13.4241C11.4133 13.4359 11.4728 13.4532 11.5384 13.479L11.3645 13.4359L10.2883 17.7507C10.2067 17.9532 9.99997 18.257 9.53356 18.1416C9.55044 18.1655 8.33778 17.843 8.33778 17.843L7.52075 19.7274L9.66247 20.2618C10.0609 20.3612 10.4514 20.4657 10.8358 20.5641L10.1547 23.2988L11.7986 23.709L12.4726 21.0029C12.9217 21.1252 13.3576 21.2373 13.7842 21.3437L13.112 24.0366L14.7573 24.4468L15.4389 21.7173C18.2453 22.2484 20.3556 22.0341 21.2439 19.4963C21.9597 17.4526 21.2083 16.2737 19.7317 15.5045C20.807 15.256 21.617 14.5487 21.8331 13.0876ZM18.0723 18.3601C17.5637 20.4038 14.1226 19.2995 13.007 19.022L13.9108 15.399C15.0264 15.6779 18.6039 16.2291 18.0723 18.3601ZM18.5814 13.0585C18.1173 14.9171 15.2533 13.9726 14.3242 13.741L15.1436 10.4551C16.0726 10.6866 19.0647 11.1188 18.5814 13.058V13.0585Z" fill="white"/>
<path id="Vector_3" d="M44.1768 9.29999C45.3932 9.29999 46.4441 9.51796 47.3268 9.94593C48.2146 10.3781 48.9468 10.9603 49.5341 11.6925C50.1135 12.4284 50.5447 13.2886 50.8232 14.2744C51.0997 15.2634 51.2385 16.3256 51.2385 17.4628C51.2385 19.2112 50.9183 20.8612 50.2719 22.4175C49.625 23.9761 48.7485 25.3284 47.6329 26.4816C46.5182 27.6333 45.2019 28.5408 43.6841 29.2116C42.1686 29.8828 40.521 30.2184 38.7519 30.2184C38.5232 30.2184 38.121 30.2119 37.5529 30.2001C36.9847 30.1884 36.3318 30.1298 35.6005 30.0314C34.8145 29.9192 34.0349 29.7661 33.2647 29.573C32.4588 29.3784 31.6758 29.0987 30.929 28.7386L37.4971 1.13952L43.3799 0.228271L41.0282 10.0219C41.5172 9.80082 42.0248 9.62326 42.545 9.49124C43.079 9.36145 43.6268 9.29722 44.1763 9.29999H44.1768ZM39.2422 25.5516C40.1282 25.5516 40.9625 25.3336 41.7472 24.9061C42.536 24.4749 43.2281 23.8869 43.7811 23.1783C44.3591 22.4394 44.8138 21.612 45.1279 20.7281C45.4572 19.8144 45.6244 18.8503 45.6219 17.8791C45.6219 16.6641 45.419 15.7181 45.0144 15.0323C44.6099 14.3503 43.8613 14.0072 42.7738 14.0072C42.4175 14.0072 41.9591 14.0751 41.39 14.1966C40.8191 14.3255 40.3082 14.5931 39.8502 14.9958L37.3457 25.3964C37.4966 25.4231 37.6302 25.4484 37.7441 25.4723C37.8557 25.4981 37.9785 25.5164 38.1018 25.5291C38.2316 25.5436 38.3802 25.5511 38.5597 25.5511L39.2418 25.5516H39.2422ZM57.3393 29.6906H51.7204L56.4655 9.72327H62.1229L57.3393 29.6906ZM60.0735 7.29046C59.3069 7.29682 58.5596 7.05035 57.9472 6.58921C57.3111 6.12421 56.9957 5.40843 56.9957 4.44374C56.9957 3.91312 57.1035 3.4153 57.3177 2.94562C57.5247 2.49063 57.815 2.07838 58.1736 1.73015C58.5331 1.38708 58.9505 1.11045 59.4065 0.913115C59.881 0.710308 60.3922 0.607237 60.9083 0.610303C61.6921 0.610303 62.3989 0.84374 63.0327 1.31155C63.6636 1.78171 63.981 2.49749 63.981 3.45702C63.9841 3.97495 63.8737 4.48727 63.6575 4.95796C63.4525 5.41339 63.1631 5.82583 62.8044 6.17343C62.4458 6.51694 62.0282 6.79292 61.5716 6.98811C61.1019 7.19343 60.6041 7.29046 60.0735 7.29046ZM67.0471 4.74843L72.9322 3.83671L71.4871 9.72233H77.7899L76.6518 14.3526H70.3869L68.7182 21.337C68.5644 21.9187 68.4772 22.4625 68.4529 22.9683C68.4247 23.4759 68.4894 23.9119 68.6413 24.2789C68.7922 24.6469 69.0632 24.9305 69.4569 25.1306C69.8493 25.3345 70.4104 25.4372 71.1463 25.4372C71.7524 25.4372 72.3435 25.3795 72.9135 25.2651C73.4991 25.1491 74.0756 24.9908 74.6385 24.7917L75.0585 29.1206C74.2521 29.4126 73.4279 29.6529 72.591 29.8401C71.7036 30.0445 70.6532 30.1425 69.4391 30.1425C67.6935 30.1425 66.3402 29.8833 65.376 29.3676C64.4132 28.8483 63.7325 28.1376 63.3252 27.2386C62.9235 26.3433 62.744 25.3106 62.7941 24.1467C62.8457 22.9805 63.0219 21.7542 63.3252 20.4637L67.0471 4.74843ZM77.5429 21.7176C77.5429 19.9973 77.8213 18.3759 78.3772 16.8572C78.9327 15.3375 79.7329 14.0086 80.7707 12.8686C81.8052 11.7342 83.0657 10.8347 84.5497 10.1747C86.0254 9.51843 87.6791 9.18749 89.5007 9.18749C90.6416 9.18749 91.6602 9.2953 92.5569 9.5114C93.4569 9.72937 94.2707 10.0111 95.0071 10.3645L93.0697 14.7708C92.5533 14.5632 92.0276 14.3796 91.4943 14.2205C90.9505 14.0531 90.2872 13.9725 89.5021 13.9725C87.6261 13.9725 86.144 14.6194 85.0405 15.9075C83.9408 17.197 83.3872 18.9328 83.3872 21.1106C83.3872 22.4011 83.6661 23.4441 84.2249 24.2423C84.7808 25.0406 85.8079 25.4381 87.299 25.4381C88.0344 25.4381 88.745 25.3612 89.4252 25.2112C90.1105 25.0594 90.7157 24.8681 91.2486 24.6422L91.6686 29.1591C90.8998 29.4539 90.1139 29.7019 89.315 29.9016C88.4525 30.1125 87.4274 30.2212 86.2382 30.2212C84.6688 30.2212 83.3394 29.992 82.2529 29.5392C81.1654 29.0803 80.2668 28.4705 79.5585 27.698C78.8469 26.9236 78.3365 26.0189 78.0205 24.9816C77.7046 23.9442 77.5424 22.8534 77.5424 21.7176H77.5429ZM102.504 30.2198C101.163 30.2198 99.9974 30.0155 99.0093 29.6109C98.0239 29.2069 97.2083 28.6387 96.5624 27.9028C95.9155 27.1706 95.4322 26.303 95.1008 25.3031C94.7694 24.3037 94.61 23.197 94.61 21.9844C94.61 20.4637 94.8538 18.9431 95.3479 17.4258C95.8396 15.907 96.5685 14.5411 97.5322 13.3275C98.4899 12.112 99.6711 11.1183 101.061 10.3434C102.449 9.57374 104.046 9.18655 105.841 9.18655C107.158 9.18655 108.316 9.3914 109.318 9.79593C110.316 10.1995 111.137 10.7719 111.786 11.5041C112.428 12.24 112.917 13.1039 113.244 14.1056C113.575 15.1026 113.738 16.2122 113.738 17.4258C113.738 18.9417 113.497 20.4633 113.019 21.9839C112.541 23.498 111.831 24.8667 110.893 26.0826C109.957 27.2967 108.788 28.2895 107.382 29.0611C105.979 29.8331 104.351 30.2198 102.504 30.2198ZM105.312 13.973C104.479 13.973 103.742 14.2144 103.112 14.692C102.479 15.1753 101.948 15.7833 101.519 16.5155C101.086 17.2514 100.766 18.0539 100.549 18.9262C100.333 19.8005 100.228 20.6278 100.228 21.412C100.228 22.6791 100.432 23.6667 100.834 24.3764C101.241 25.0823 101.973 25.4381 103.036 25.4381C103.872 25.4381 104.605 25.1976 105.238 24.7153C105.868 24.2358 106.4 23.6278 106.831 22.8933C107.262 22.162 107.586 21.3567 107.803 20.4825C108.015 19.6111 108.123 18.78 108.123 17.9962C108.123 16.7325 107.92 15.7434 107.514 15.0342C107.11 14.3278 106.374 13.9725 105.312 13.9725V13.973ZM119.861 29.6906H114.238L118.983 9.72327H124.643L119.861 29.6906ZM122.591 7.29046C121.825 7.29693 121.079 7.05043 120.467 6.58921C119.833 6.12421 119.516 5.40843 119.516 4.44374C119.516 3.91312 119.625 3.4153 119.839 2.94562C120.045 2.49008 120.335 2.07765 120.694 1.73015C121.054 1.38696 121.472 1.11033 121.928 0.913115C122.401 0.710269 122.911 0.607181 123.425 0.610303C124.211 0.610303 124.92 0.84374 125.553 1.31155C126.185 1.78171 126.504 2.49749 126.504 3.45702C126.504 3.98952 126.39 4.48921 126.178 4.95796C125.966 5.42671 125.68 5.8303 125.327 6.17343C124.968 6.51613 124.55 6.79201 124.094 6.98811C123.623 7.19343 123.125 7.29046 122.591 7.29046ZM128.692 10.6312C129.119 10.5066 129.595 10.3566 130.113 10.1934C130.688 10.0149 131.272 9.8641 131.863 9.74155C132.504 9.60093 133.228 9.48608 134.025 9.39749C134.821 9.30702 135.729 9.26296 136.737 9.26296C139.7 9.26296 141.743 10.1259 142.871 11.8467C143.998 13.5675 144.193 15.922 143.461 18.9075L140.877 29.6887H135.221L137.726 19.1339C137.878 18.4753 137.998 17.8378 138.087 17.2153C138.177 16.5984 138.171 16.0542 138.067 15.5841C137.975 15.1333 137.728 14.7294 137.367 14.4436C136.996 14.1534 136.436 14.0076 135.677 14.0076C134.925 14.0106 134.175 14.0879 133.438 14.2383L129.755 29.6873H124.097L128.692 10.6312Z" fill="#4D4D4D"/>
</g>
<defs>
<clipPath id="clip0_1_1571">
<rect width="143.678" height="30" fill="white" transform="translate(0.218018 0.224609)"/>
</clipPath>
</defs>
</svg>
