<svg width="201" height="31" viewBox="0 0 201 31" fill="none" xmlns="http://www.w3.org/2000/svg">
<g id="bitfinex 1" clip-path="url(#clip0_1_1556)">
<path id="Vector" d="M177.916 25.975C178.99 27.4547 184.896 34.544 194.165 26.3158C200.869 19.5352 200.701 4.83524 200.057 0.393495C199.833 1.0401 192.055 23.1877 177.916 25.975ZM200.057 0.390582C199.974 0.346893 191.351 -1.17932 182.826 5.95369C177.532 10.3809 176.831 16.8644 177.073 21.1954C189.465 19.3838 199.775 0.900291 200.057 0.390582Z" fill="#BDBDBD"/>
<path id="Vector_2" d="M200.057 0.390582C199.974 0.346893 191.351 -1.17932 182.826 5.95369C177.532 10.3809 176.831 16.8644 177.073 21.1954C189.465 19.3838 199.775 0.900291 200.057 0.390582Z" fill="#828282"/>
<path id="Vector_3" d="M14.1755 25.11H4.52075V18.4314H14.1755C16.588 18.4314 17.8212 19.9314 17.8212 21.8741C17.8212 23.7469 16.6149 25.11 14.1755 25.11ZM13.8616 14.8547H4.52075V9.23039H13.8616C16.4042 9.23039 17.4019 10.3954 17.4019 11.9916C17.4019 13.4479 16.2472 14.8547 13.8616 14.8547ZM16.3279 16.5585C20.3952 16.3867 21.8638 13.7624 21.8638 10.9022C21.8615 7.76535 19.9468 5.17603 15.2764 5.17603H0.350342V29.0974H15.7225C19.5521 29.0974 22.4131 27.0207 22.4131 22.5556C22.4131 19.3867 20.8122 16.6954 16.3257 16.5585H16.3279ZM27.3391 5.17603V29.0974H31.5163V5.17603H27.3391ZM48.4154 9.70806H57.6082V5.17603H35.0723V9.70806H44.2539V29.0974H48.4243L48.4154 9.70806ZM61.1687 5.17603V29.0974H65.3391V19.777H75.1239V15.842H65.3391V9.3003H81.2382V5.17603H61.1687ZM84.6171 5.17603V29.0974H88.7876V5.17603H84.6171ZM98.5566 11.0013L112.391 29.0974H117.113V5.17603H112.994V22.4187L99.7203 5.17603H94.4221V29.0974H98.5566V11.0013ZM122.749 5.17603V29.0974H143.153V25.078H126.92V18.5013H136.651V14.7877H126.92V9.3003H143.158V5.17603H122.749ZM171.09 5.17603H165.581L158.552 13.5935L151.572 5.17603H145.985L155.797 16.9663L145.619 29.0974H151.128L158.498 20.2721L165.844 29.0974H171.449L161.254 16.9343L171.09 5.17603Z" fill="#828282"/>
</g>
<defs>
<clipPath id="clip0_1_1556">
<rect width="200" height="30" fill="white" transform="translate(0.350342 0.224609)"/>
</clipPath>
</defs>
</svg>
