<svg width="139" height="31" viewBox="0 0 139 31" fill="none" xmlns="http://www.w3.org/2000/svg">
<g id="coinbase 1" clip-path="url(#clip0_1_1560)">
<g id="Page-1">
<g id="Imported-Layers">
<path id="Fill-1" d="M9.35471 30.2009C4.85471 30.2009 0.449951 26.9628 0.449951 19.6532C0.449951 12.3199 4.85471 9.12939 9.35471 9.12939C11.569 9.12939 13.3071 9.70082 14.5452 10.5103L13.188 13.4865C12.3547 12.8913 11.1166 12.5104 9.87852 12.5104C7.16424 12.5104 4.68805 14.6532 4.68805 19.6056C4.68805 24.558 7.23566 26.7485 9.87852 26.7485C11.1166 26.7485 12.3547 26.3675 13.188 25.7723L14.5452 28.8199C13.2595 29.677 11.569 30.2009 9.35471 30.2009Z" fill="#828282"/>
<path id="Fill-2" d="M24.8547 30.2009C19.1166 30.2009 15.95 25.6532 15.95 19.6532C15.95 13.6532 19.0928 9.12939 24.8547 9.12939C30.5928 9.12939 33.7595 13.6294 33.7595 19.6532C33.7595 25.6532 30.5928 30.2009 24.8547 30.2009ZM24.8547 12.3913C21.6642 12.3913 20.0928 15.2485 20.0928 19.6056C20.0928 23.9628 21.6642 26.8437 24.8547 26.8437C28.0452 26.8437 29.6166 23.9628 29.6166 19.6056C29.6166 15.2485 28.0452 12.3913 24.8547 12.3913Z" fill="#828282"/>
<path id="Fill-3" d="M39.2832 5.86759C37.9261 5.86759 36.8308 4.81997 36.8308 3.53426C36.8308 2.24855 37.9261 1.20093 39.2832 1.20093C40.6404 1.20093 41.7356 2.24855 41.7356 3.53426C41.7356 4.81997 40.6166 5.86759 39.2832 5.86759ZM37.2118 9.53426H41.3547V29.7723H37.2118V9.53426Z" fill="#828282"/>
<path id="Fill-4" d="M57.5933 29.7723V16.2723C57.5933 13.9151 56.1647 12.4389 53.3552 12.4389C51.8552 12.4389 50.4742 12.7008 49.6409 13.0342V29.7961H45.5457V10.558C47.5695 9.72463 50.1647 9.12939 53.3314 9.12939C58.998 9.12939 61.7361 11.6056 61.7361 15.8913V29.7961H57.5933" fill="#828282"/>
<path id="Fill-5" d="M72.6169 30.2009C69.9978 30.2009 67.4026 29.558 65.8074 28.7723V0.296143H69.9026V10.058C70.8788 9.60567 72.4502 9.22471 73.8549 9.22471C79.0692 9.22471 82.6168 12.9866 82.6168 19.1771C82.6168 26.8199 78.6644 30.2009 72.6169 30.2009ZM73.1407 12.439C72.0216 12.439 70.6883 12.7009 69.9026 13.1057V26.3914C70.4978 26.6533 71.6645 26.9152 72.8311 26.9152C76.093 26.9152 78.4978 24.6533 78.4978 19.4866C78.5216 15.058 76.4264 12.439 73.1407 12.439Z" fill="#828282"/>
<path id="Fill-6" d="M93.7587 30.2009C87.9492 30.2009 84.9968 27.8437 84.9968 23.8437C84.9968 18.2008 90.9968 17.2008 97.1159 16.8675V15.5818C97.1159 13.0342 95.4254 12.1294 92.8302 12.1294C90.9254 12.1294 88.5921 12.7246 87.2349 13.3675L86.1873 10.558C87.8064 9.84368 90.5444 9.12939 93.2587 9.12939C98.0921 9.12939 101.044 11.0104 101.044 16.0104V28.7723C99.5921 29.558 96.6159 30.2009 93.7587 30.2009ZM97.1397 19.6056C92.9968 19.8199 88.8778 20.177 88.8778 23.7723C88.8778 25.9151 90.5206 27.2247 93.6397 27.2247C94.9492 27.2247 96.4968 27.0104 97.1397 26.7008V19.6056Z" fill="#828282"/>
<path id="Fill-7" d="M110.283 30.2009C107.926 30.2009 105.45 29.558 103.973 28.7723L105.354 25.6294C106.402 26.2723 108.616 26.9389 110.164 26.9389C112.378 26.9389 113.854 25.8437 113.854 24.1532C113.854 22.3199 112.307 21.6056 110.259 20.8437C107.545 19.8199 104.521 18.5818 104.521 14.7961C104.521 11.4627 107.116 9.12939 111.616 9.12939C114.069 9.12939 116.092 9.72463 117.521 10.558L116.235 13.4151C115.331 12.8437 113.521 12.2246 112.069 12.2246C109.926 12.2246 108.735 13.3437 108.735 14.8199C108.735 16.6532 110.235 17.2961 112.235 18.058C115.045 19.1056 118.164 20.2723 118.164 24.2247C118.14 27.8199 115.354 30.2009 110.283 30.2009Z" fill="#828282"/>
<path id="Fill-8" d="M138.116 19.5581L124.664 21.4391C125.068 25.0819 127.449 26.9153 130.854 26.9153C132.878 26.9153 135.068 26.4153 136.449 25.6772L137.64 28.7486C136.068 29.5819 133.354 30.1772 130.568 30.1772C124.187 30.1772 120.616 26.0819 120.616 19.6295C120.616 13.4391 124.068 9.10571 129.735 9.10571C134.997 9.10571 138.116 12.5581 138.116 18.0105C138.164 18.5105 138.164 19.0343 138.116 19.5581ZM129.711 12.1295C126.568 12.1295 124.497 14.5343 124.426 18.7486L134.235 17.3914C134.187 13.8676 132.402 12.1295 129.711 12.1295Z" fill="#828282"/>
</g>
</g>
</g>
<defs>
<clipPath id="clip0_1_1560">
<rect width="137.868" height="30" fill="white" transform="translate(0.350342 0.224609)"/>
</clipPath>
</defs>
</svg>
